<?xml version="1.0" standalone="no"?><!DOCTYPE svg PUBLIC "-//W3C//DTD SVG 1.1//EN" "http://www.w3.org/Graphics/SVG/1.1/DTD/svg11.dtd"><svg t="1715008020594" class="icon" viewBox="0 0 1024 1024" version="1.1" xmlns="http://www.w3.org/2000/svg" p-id="5206" xmlns:xlink="http://www.w3.org/1999/xlink" width="200" height="200"><path d="M512 1011.2c-12.8 0-24-4.8-32-14.4L264 739.2c-11.2-12.8-9.6-33.6 3.2-44.8 12.8-11.2 33.6-9.6 44.8 3.2L512 934.4l200-236.8c11.2-12.8 32-16 44.8-3.2 12.8 11.2 16 32 3.2 44.8L544 996.8c-8 8-19.2 14.4-32 14.4z m-17.6-56zM896 457.6c-6.4 0-12.8-1.6-19.2-6.4-14.4-11.2-17.6-30.4-6.4-44.8 16-20.8 25.6-44.8 32-68.8 3.2-11.2 3.2-24 3.2-36.8 0-99.2-81.6-179.2-182.4-179.2-80 0-152 52.8-174.4 129.6-4.8 14.4-17.6 24-32 22.4h-9.6c-14.4 0-25.6-9.6-30.4-22.4-22.4-76.8-94.4-129.6-174.4-129.6-100.8 0-182.4 80-182.4 179.2 0 12.8 1.6 24 3.2 36.8 4.8 24 16 48 30.4 67.2 9.6 14.4 6.4 33.6-6.4 44.8-14.4 9.6-33.6 8-44.8-6.4C81.6 416 68.8 384 60.8 350.4c-3.2-16-4.8-33.6-4.8-49.6 0-134.4 110.4-243.2 246.4-243.2 86.4 0 166.4 46.4 209.6 116.8 44.8-70.4 123.2-116.8 209.6-116.8 136 0 246.4 108.8 246.4 243.2 0 16-1.6 33.6-4.8 49.6-8 33.6-20.8 65.6-43.2 94.4-4.8 9.6-14.4 12.8-24 12.8z" fill="#43484D" p-id="5207"></path><path d="M476.8 707.2h-6.4c-9.6-1.6-17.6-8-22.4-16l-107.2-190.4-62.4 91.2c-6.4 8-16 14.4-25.6 14.4l-164.8 3.2c-17.6 0-32-14.4-32-32s14.4-32 32-32l148.8-3.2 81.6-123.2c6.4-9.6 17.6-14.4 27.2-14.4 11.2 0 20.8 6.4 27.2 16L486.4 624l83.2-65.6c6.4-4.8 12.8-6.4 19.2-6.4h328c17.6 0 32 14.4 32 32s-14.4 32-32 32H600L496 699.2c-6.4 4.8-12.8 8-19.2 8z" fill="#229BFF" p-id="5208"></path></svg>